<mxfile host="app.diagrams.net" modified="2024-02-15T22:52:21.000Z" agent="Mozilla/5.0 (Windows NT 10.0; Win64; x64; rv:122.0) Gecko/20100101 Firefox/122.0" etag="QhdP3XJQiIwb5KJNbUSb" version="23.1.4" type="google">
  <diagram name="Page-1" id="dHcFzqri0TYT8PuIeERV">
    <mxGraphModel grid="1" page="1" gridSize="10" guides="1" tooltips="1" connect="1" arrows="1" fold="1" pageScale="1" pageWidth="850" pageHeight="1100" math="0" shadow="0">
      <root>
        <mxCell id="0" />
        <mxCell id="1" parent="0" />
        <mxCell id="ZsHar_ET8EySAVlPUovQ-33" value="" style="edgeStyle=orthogonalEdgeStyle;rounded=0;orthogonalLoop=1;jettySize=auto;html=1;" edge="1" parent="1" source="ZsHar_ET8EySAVlPUovQ-5" target="ZsHar_ET8EySAVlPUovQ-32">
          <mxGeometry relative="1" as="geometry" />
        </mxCell>
        <mxCell id="ZsHar_ET8EySAVlPUovQ-5" value="Login" style="swimlane;fontStyle=0;childLayout=stackLayout;horizontal=1;startSize=30;horizontalStack=0;resizeParent=1;resizeParentMax=0;resizeLast=0;collapsible=1;marginBottom=0;whiteSpace=wrap;html=1;" vertex="1" parent="1">
          <mxGeometry x="30" y="160" width="140" height="90" as="geometry" />
        </mxCell>
        <mxCell id="ZsHar_ET8EySAVlPUovQ-6" value="login (login, password)" style="text;strokeColor=none;fillColor=none;align=left;verticalAlign=middle;spacingLeft=4;spacingRight=4;overflow=hidden;points=[[0,0.5],[1,0.5]];portConstraint=eastwest;rotatable=0;whiteSpace=wrap;html=1;" vertex="1" parent="ZsHar_ET8EySAVlPUovQ-5">
          <mxGeometry y="30" width="140" height="30" as="geometry" />
        </mxCell>
        <mxCell id="ZsHar_ET8EySAVlPUovQ-7" value="set security level" style="text;strokeColor=none;fillColor=none;align=left;verticalAlign=middle;spacingLeft=4;spacingRight=4;overflow=hidden;points=[[0,0.5],[1,0.5]];portConstraint=eastwest;rotatable=0;whiteSpace=wrap;html=1;" vertex="1" parent="ZsHar_ET8EySAVlPUovQ-5">
          <mxGeometry y="60" width="140" height="30" as="geometry" />
        </mxCell>
        <mxCell id="ZsHar_ET8EySAVlPUovQ-9" value="New User" style="swimlane;fontStyle=0;childLayout=stackLayout;horizontal=1;startSize=30;horizontalStack=0;resizeParent=1;resizeParentMax=0;resizeLast=0;collapsible=1;marginBottom=0;whiteSpace=wrap;html=1;" vertex="1" parent="1">
          <mxGeometry x="280" y="160" width="160" height="90" as="geometry" />
        </mxCell>
        <mxCell id="ZsHar_ET8EySAVlPUovQ-10" value="create new user (login, email, password, password_conf, secret, action)" style="text;strokeColor=none;fillColor=none;align=left;verticalAlign=middle;spacingLeft=4;spacingRight=4;overflow=hidden;points=[[0,0.5],[1,0.5]];portConstraint=eastwest;rotatable=0;whiteSpace=wrap;html=1;" vertex="1" parent="ZsHar_ET8EySAVlPUovQ-9">
          <mxGeometry y="30" width="160" height="60" as="geometry" />
        </mxCell>
        <mxCell id="ZsHar_ET8EySAVlPUovQ-13" style="edgeStyle=orthogonalEdgeStyle;rounded=0;orthogonalLoop=1;jettySize=auto;html=1;" edge="1" parent="1" source="ZsHar_ET8EySAVlPUovQ-12" target="ZsHar_ET8EySAVlPUovQ-5">
          <mxGeometry relative="1" as="geometry" />
        </mxCell>
        <mxCell id="ZsHar_ET8EySAVlPUovQ-14" style="edgeStyle=orthogonalEdgeStyle;rounded=0;orthogonalLoop=1;jettySize=auto;html=1;entryX=0.5;entryY=0;entryDx=0;entryDy=0;" edge="1" parent="1" source="ZsHar_ET8EySAVlPUovQ-12" target="ZsHar_ET8EySAVlPUovQ-9">
          <mxGeometry relative="1" as="geometry" />
        </mxCell>
        <mxCell id="ZsHar_ET8EySAVlPUovQ-17" style="edgeStyle=orthogonalEdgeStyle;rounded=0;orthogonalLoop=1;jettySize=auto;html=1;" edge="1" parent="1" source="ZsHar_ET8EySAVlPUovQ-12" target="ZsHar_ET8EySAVlPUovQ-15">
          <mxGeometry relative="1" as="geometry" />
        </mxCell>
        <mxCell id="ZsHar_ET8EySAVlPUovQ-20" style="edgeStyle=orthogonalEdgeStyle;rounded=0;orthogonalLoop=1;jettySize=auto;html=1;" edge="1" parent="1" source="ZsHar_ET8EySAVlPUovQ-12" target="ZsHar_ET8EySAVlPUovQ-18">
          <mxGeometry relative="1" as="geometry" />
        </mxCell>
        <mxCell id="ZsHar_ET8EySAVlPUovQ-42" style="edgeStyle=orthogonalEdgeStyle;rounded=0;orthogonalLoop=1;jettySize=auto;html=1;" edge="1" parent="1" source="ZsHar_ET8EySAVlPUovQ-12" target="ZsHar_ET8EySAVlPUovQ-40">
          <mxGeometry relative="1" as="geometry">
            <Array as="points">
              <mxPoint x="410" y="120" />
              <mxPoint x="960" y="120" />
            </Array>
          </mxGeometry>
        </mxCell>
        <mxCell id="ZsHar_ET8EySAVlPUovQ-12" value="Load URL" style="rounded=0;whiteSpace=wrap;html=1;" vertex="1" parent="1">
          <mxGeometry x="110" y="50" width="600" height="30" as="geometry" />
        </mxCell>
        <mxCell id="ZsHar_ET8EySAVlPUovQ-15" value="Info" style="swimlane;fontStyle=0;childLayout=stackLayout;horizontal=1;startSize=30;horizontalStack=0;resizeParent=1;resizeParentMax=0;resizeLast=0;collapsible=1;marginBottom=0;whiteSpace=wrap;html=1;" vertex="1" parent="1">
          <mxGeometry x="480" y="160" width="160" height="60" as="geometry" />
        </mxCell>
        <mxCell id="ZsHar_ET8EySAVlPUovQ-16" value="display description of web application" style="text;strokeColor=none;fillColor=none;align=left;verticalAlign=middle;spacingLeft=4;spacingRight=4;overflow=hidden;points=[[0,0.5],[1,0.5]];portConstraint=eastwest;rotatable=0;whiteSpace=wrap;html=1;" vertex="1" parent="ZsHar_ET8EySAVlPUovQ-15">
          <mxGeometry y="30" width="160" height="30" as="geometry" />
        </mxCell>
        <mxCell id="ZsHar_ET8EySAVlPUovQ-18" value="Talks &amp;amp; Training" style="swimlane;fontStyle=0;childLayout=stackLayout;horizontal=1;startSize=30;horizontalStack=0;resizeParent=1;resizeParentMax=0;resizeLast=0;collapsible=1;marginBottom=0;whiteSpace=wrap;html=1;" vertex="1" parent="1">
          <mxGeometry x="680" y="160" width="160" height="80" as="geometry" />
        </mxCell>
        <mxCell id="ZsHar_ET8EySAVlPUovQ-19" value="display links to pdf documents of trainings and talks" style="text;strokeColor=none;fillColor=none;align=left;verticalAlign=middle;spacingLeft=4;spacingRight=4;overflow=hidden;points=[[0,0.5],[1,0.5]];portConstraint=eastwest;rotatable=0;whiteSpace=wrap;html=1;" vertex="1" parent="ZsHar_ET8EySAVlPUovQ-18">
          <mxGeometry y="30" width="160" height="50" as="geometry" />
        </mxCell>
        <mxCell id="ZsHar_ET8EySAVlPUovQ-77" style="edgeStyle=orthogonalEdgeStyle;rounded=0;orthogonalLoop=1;jettySize=auto;html=1;entryX=1;entryY=0.5;entryDx=0;entryDy=0;" edge="1" parent="1" source="ZsHar_ET8EySAVlPUovQ-21" target="ZsHar_ET8EySAVlPUovQ-71">
          <mxGeometry relative="1" as="geometry">
            <Array as="points">
              <mxPoint x="120" y="485" />
            </Array>
          </mxGeometry>
        </mxCell>
        <mxCell id="ZsHar_ET8EySAVlPUovQ-21" value="Bugs" style="swimlane;fontStyle=0;childLayout=stackLayout;horizontal=1;startSize=30;horizontalStack=0;resizeParent=1;resizeParentMax=0;resizeLast=0;collapsible=1;marginBottom=0;whiteSpace=wrap;html=1;" vertex="1" parent="1">
          <mxGeometry x="50" y="350" width="140" height="70" as="geometry" />
        </mxCell>
        <mxCell id="ZsHar_ET8EySAVlPUovQ-22" value="Choose bug to exploit (bug, form)" style="text;strokeColor=none;fillColor=none;align=left;verticalAlign=middle;spacingLeft=4;spacingRight=4;overflow=hidden;points=[[0,0.5],[1,0.5]];portConstraint=eastwest;rotatable=0;whiteSpace=wrap;html=1;" vertex="1" parent="ZsHar_ET8EySAVlPUovQ-21">
          <mxGeometry y="30" width="140" height="40" as="geometry" />
        </mxCell>
        <mxCell id="ZsHar_ET8EySAVlPUovQ-67" style="edgeStyle=orthogonalEdgeStyle;rounded=0;orthogonalLoop=1;jettySize=auto;html=1;entryX=0.5;entryY=0;entryDx=0;entryDy=0;" edge="1" parent="1" source="ZsHar_ET8EySAVlPUovQ-25" target="ZsHar_ET8EySAVlPUovQ-65">
          <mxGeometry relative="1" as="geometry" />
        </mxCell>
        <mxCell id="ZsHar_ET8EySAVlPUovQ-25" value="Create User" style="swimlane;fontStyle=0;childLayout=stackLayout;horizontal=1;startSize=30;horizontalStack=0;resizeParent=1;resizeParentMax=0;resizeLast=0;collapsible=1;marginBottom=0;whiteSpace=wrap;html=1;" vertex="1" parent="1">
          <mxGeometry x="210" y="350" width="140" height="110" as="geometry" />
        </mxCell>
        <mxCell id="ZsHar_ET8EySAVlPUovQ-26" value="Create an extra user (login, email, password, password_conf, secret, action)" style="text;strokeColor=none;fillColor=none;align=left;verticalAlign=middle;spacingLeft=4;spacingRight=4;overflow=hidden;points=[[0,0.5],[1,0.5]];portConstraint=eastwest;rotatable=0;whiteSpace=wrap;html=1;" vertex="1" parent="ZsHar_ET8EySAVlPUovQ-25">
          <mxGeometry y="30" width="140" height="80" as="geometry" />
        </mxCell>
        <mxCell id="ZsHar_ET8EySAVlPUovQ-29" value="Set Security Level" style="swimlane;fontStyle=0;childLayout=stackLayout;horizontal=1;startSize=30;horizontalStack=0;resizeParent=1;resizeParentMax=0;resizeLast=0;collapsible=1;marginBottom=0;whiteSpace=wrap;html=1;" vertex="1" parent="1">
          <mxGeometry x="390" y="350" width="140" height="70" as="geometry" />
        </mxCell>
        <mxCell id="ZsHar_ET8EySAVlPUovQ-30" value="Modify security level (security_level, form)" style="text;strokeColor=none;fillColor=none;align=left;verticalAlign=middle;spacingLeft=4;spacingRight=4;overflow=hidden;points=[[0,0.5],[1,0.5]];portConstraint=eastwest;rotatable=0;whiteSpace=wrap;html=1;" vertex="1" parent="ZsHar_ET8EySAVlPUovQ-29">
          <mxGeometry y="30" width="140" height="40" as="geometry" />
        </mxCell>
        <mxCell id="ZsHar_ET8EySAVlPUovQ-36" style="edgeStyle=orthogonalEdgeStyle;rounded=0;orthogonalLoop=1;jettySize=auto;html=1;exitX=0.5;exitY=1;exitDx=0;exitDy=0;" edge="1" parent="1" source="ZsHar_ET8EySAVlPUovQ-32" target="ZsHar_ET8EySAVlPUovQ-29">
          <mxGeometry relative="1" as="geometry">
            <mxPoint x="300" y="300" as="sourcePoint" />
            <Array as="points">
              <mxPoint x="100" y="330" />
              <mxPoint x="430" y="330" />
            </Array>
          </mxGeometry>
        </mxCell>
        <mxCell id="ZsHar_ET8EySAVlPUovQ-39" style="edgeStyle=orthogonalEdgeStyle;rounded=0;orthogonalLoop=1;jettySize=auto;html=1;" edge="1" parent="1" target="ZsHar_ET8EySAVlPUovQ-37">
          <mxGeometry relative="1" as="geometry">
            <mxPoint x="100" y="300" as="sourcePoint" />
            <Array as="points">
              <mxPoint x="100" y="330" />
              <mxPoint x="610" y="330" />
            </Array>
          </mxGeometry>
        </mxCell>
        <mxCell id="ZsHar_ET8EySAVlPUovQ-43" style="edgeStyle=orthogonalEdgeStyle;rounded=0;orthogonalLoop=1;jettySize=auto;html=1;entryX=0.519;entryY=1.067;entryDx=0;entryDy=0;entryPerimeter=0;" edge="1" parent="1" source="ZsHar_ET8EySAVlPUovQ-32" target="ZsHar_ET8EySAVlPUovQ-41">
          <mxGeometry relative="1" as="geometry">
            <Array as="points">
              <mxPoint x="963" y="280" />
            </Array>
          </mxGeometry>
        </mxCell>
        <mxCell id="ZsHar_ET8EySAVlPUovQ-47" style="edgeStyle=orthogonalEdgeStyle;rounded=0;orthogonalLoop=1;jettySize=auto;html=1;exitX=0.5;exitY=1;exitDx=0;exitDy=0;" edge="1" parent="1" source="ZsHar_ET8EySAVlPUovQ-32" target="ZsHar_ET8EySAVlPUovQ-44">
          <mxGeometry relative="1" as="geometry">
            <mxPoint x="300" y="300" as="sourcePoint" />
            <Array as="points">
              <mxPoint x="100" y="330" />
              <mxPoint x="780" y="330" />
            </Array>
          </mxGeometry>
        </mxCell>
        <mxCell id="ZsHar_ET8EySAVlPUovQ-51" style="edgeStyle=orthogonalEdgeStyle;rounded=0;orthogonalLoop=1;jettySize=auto;html=1;entryX=0.5;entryY=0;entryDx=0;entryDy=0;" edge="1" parent="1" source="ZsHar_ET8EySAVlPUovQ-32" target="ZsHar_ET8EySAVlPUovQ-49">
          <mxGeometry relative="1" as="geometry">
            <Array as="points">
              <mxPoint x="100" y="330" />
              <mxPoint x="-220" y="330" />
            </Array>
          </mxGeometry>
        </mxCell>
        <mxCell id="ZsHar_ET8EySAVlPUovQ-54" style="edgeStyle=orthogonalEdgeStyle;rounded=0;orthogonalLoop=1;jettySize=auto;html=1;entryX=0.5;entryY=0;entryDx=0;entryDy=0;" edge="1" parent="1" source="ZsHar_ET8EySAVlPUovQ-32" target="ZsHar_ET8EySAVlPUovQ-21">
          <mxGeometry relative="1" as="geometry">
            <Array as="points">
              <mxPoint x="100" y="330" />
              <mxPoint x="120" y="330" />
            </Array>
          </mxGeometry>
        </mxCell>
        <mxCell id="ZsHar_ET8EySAVlPUovQ-55" style="edgeStyle=orthogonalEdgeStyle;rounded=0;orthogonalLoop=1;jettySize=auto;html=1;" edge="1" parent="1" source="ZsHar_ET8EySAVlPUovQ-32" target="ZsHar_ET8EySAVlPUovQ-25">
          <mxGeometry relative="1" as="geometry">
            <Array as="points">
              <mxPoint x="100" y="330" />
              <mxPoint x="280" y="330" />
            </Array>
          </mxGeometry>
        </mxCell>
        <mxCell id="ZsHar_ET8EySAVlPUovQ-58" style="edgeStyle=orthogonalEdgeStyle;rounded=0;orthogonalLoop=1;jettySize=auto;html=1;" edge="1" parent="1" source="ZsHar_ET8EySAVlPUovQ-32" target="ZsHar_ET8EySAVlPUovQ-56">
          <mxGeometry relative="1" as="geometry">
            <Array as="points">
              <mxPoint x="100" y="330" />
              <mxPoint x="980" y="330" />
            </Array>
          </mxGeometry>
        </mxCell>
        <mxCell id="ZsHar_ET8EySAVlPUovQ-70" style="edgeStyle=orthogonalEdgeStyle;rounded=0;orthogonalLoop=1;jettySize=auto;html=1;entryX=0.5;entryY=0;entryDx=0;entryDy=0;" edge="1" parent="1" source="ZsHar_ET8EySAVlPUovQ-32" target="ZsHar_ET8EySAVlPUovQ-68">
          <mxGeometry relative="1" as="geometry">
            <Array as="points">
              <mxPoint x="100" y="330" />
              <mxPoint x="-50" y="330" />
            </Array>
          </mxGeometry>
        </mxCell>
        <mxCell id="ZsHar_ET8EySAVlPUovQ-32" value="Index / Landing Page" style="rounded=0;whiteSpace=wrap;html=1;" vertex="1" parent="1">
          <mxGeometry x="30" y="270" width="140" height="30" as="geometry" />
        </mxCell>
        <mxCell id="ZsHar_ET8EySAVlPUovQ-37" value="Reset" style="swimlane;fontStyle=0;childLayout=stackLayout;horizontal=1;startSize=30;horizontalStack=0;resizeParent=1;resizeParentMax=0;resizeLast=0;collapsible=1;marginBottom=0;whiteSpace=wrap;html=1;" vertex="1" parent="1">
          <mxGeometry x="560" y="350" width="140" height="70" as="geometry" />
        </mxCell>
        <mxCell id="ZsHar_ET8EySAVlPUovQ-38" value="Reset Settings" style="text;strokeColor=none;fillColor=none;align=left;verticalAlign=middle;spacingLeft=4;spacingRight=4;overflow=hidden;points=[[0,0.5],[1,0.5]];portConstraint=eastwest;rotatable=0;whiteSpace=wrap;html=1;" vertex="1" parent="ZsHar_ET8EySAVlPUovQ-37">
          <mxGeometry y="30" width="140" height="40" as="geometry" />
        </mxCell>
        <mxCell id="ZsHar_ET8EySAVlPUovQ-40" value="Blog" style="swimlane;fontStyle=0;childLayout=stackLayout;horizontal=1;startSize=30;horizontalStack=0;resizeParent=1;resizeParentMax=0;resizeLast=0;collapsible=1;marginBottom=0;whiteSpace=wrap;html=1;" vertex="1" parent="1">
          <mxGeometry x="880" y="160" width="160" height="60" as="geometry" />
        </mxCell>
        <mxCell id="ZsHar_ET8EySAVlPUovQ-41" value="External link to blog" style="text;strokeColor=none;fillColor=none;align=left;verticalAlign=middle;spacingLeft=4;spacingRight=4;overflow=hidden;points=[[0,0.5],[1,0.5]];portConstraint=eastwest;rotatable=0;whiteSpace=wrap;html=1;" vertex="1" parent="ZsHar_ET8EySAVlPUovQ-40">
          <mxGeometry y="30" width="160" height="30" as="geometry" />
        </mxCell>
        <mxCell id="ZsHar_ET8EySAVlPUovQ-44" value="Credits" style="swimlane;fontStyle=0;childLayout=stackLayout;horizontal=1;startSize=30;horizontalStack=0;resizeParent=1;resizeParentMax=0;resizeLast=0;collapsible=1;marginBottom=0;whiteSpace=wrap;html=1;" vertex="1" parent="1">
          <mxGeometry x="730" y="350" width="140" height="120" as="geometry" />
        </mxCell>
        <mxCell id="ZsHar_ET8EySAVlPUovQ-45" value="Display credits" style="text;strokeColor=none;fillColor=none;align=left;verticalAlign=middle;spacingLeft=4;spacingRight=4;overflow=hidden;points=[[0,0.5],[1,0.5]];portConstraint=eastwest;rotatable=0;whiteSpace=wrap;html=1;" vertex="1" parent="ZsHar_ET8EySAVlPUovQ-44">
          <mxGeometry y="30" width="140" height="40" as="geometry" />
        </mxCell>
        <mxCell id="ZsHar_ET8EySAVlPUovQ-46" value="Display links to pdf documents of trainings and talks" style="text;strokeColor=none;fillColor=none;align=left;verticalAlign=middle;spacingLeft=4;spacingRight=4;overflow=hidden;points=[[0,0.5],[1,0.5]];portConstraint=eastwest;rotatable=0;whiteSpace=wrap;html=1;" vertex="1" parent="ZsHar_ET8EySAVlPUovQ-44">
          <mxGeometry y="70" width="140" height="50" as="geometry" />
        </mxCell>
        <mxCell id="ZsHar_ET8EySAVlPUovQ-49" value="Logout" style="swimlane;fontStyle=0;childLayout=stackLayout;horizontal=1;startSize=30;horizontalStack=0;resizeParent=1;resizeParentMax=0;resizeLast=0;collapsible=1;marginBottom=0;whiteSpace=wrap;html=1;" vertex="1" parent="1">
          <mxGeometry x="-290" y="350" width="140" height="70" as="geometry" />
        </mxCell>
        <mxCell id="ZsHar_ET8EySAVlPUovQ-50" value="logout" style="text;strokeColor=none;fillColor=none;align=left;verticalAlign=middle;spacingLeft=4;spacingRight=4;overflow=hidden;points=[[0,0.5],[1,0.5]];portConstraint=eastwest;rotatable=0;whiteSpace=wrap;html=1;" vertex="1" parent="ZsHar_ET8EySAVlPUovQ-49">
          <mxGeometry y="30" width="140" height="40" as="geometry" />
        </mxCell>
        <mxCell id="ZsHar_ET8EySAVlPUovQ-53" style="edgeStyle=orthogonalEdgeStyle;rounded=0;orthogonalLoop=1;jettySize=auto;html=1;entryX=0;entryY=0.156;entryDx=0;entryDy=0;entryPerimeter=0;" edge="1" parent="1" source="ZsHar_ET8EySAVlPUovQ-49" target="ZsHar_ET8EySAVlPUovQ-5">
          <mxGeometry relative="1" as="geometry">
            <Array as="points">
              <mxPoint x="-280" y="174" />
            </Array>
          </mxGeometry>
        </mxCell>
        <mxCell id="ZsHar_ET8EySAVlPUovQ-62" style="edgeStyle=orthogonalEdgeStyle;rounded=0;orthogonalLoop=1;jettySize=auto;html=1;entryX=0.5;entryY=0;entryDx=0;entryDy=0;" edge="1" parent="1" source="ZsHar_ET8EySAVlPUovQ-56" target="ZsHar_ET8EySAVlPUovQ-59">
          <mxGeometry relative="1" as="geometry" />
        </mxCell>
        <mxCell id="ZsHar_ET8EySAVlPUovQ-56" value="Change Password" style="swimlane;fontStyle=0;childLayout=stackLayout;horizontal=1;startSize=30;horizontalStack=0;resizeParent=1;resizeParentMax=0;resizeLast=0;collapsible=1;marginBottom=0;whiteSpace=wrap;html=1;" vertex="1" parent="1">
          <mxGeometry x="910" y="350" width="140" height="90" as="geometry" />
        </mxCell>
        <mxCell id="ZsHar_ET8EySAVlPUovQ-57" value="update password (password_curr, password_new, password_conf, action)" style="text;strokeColor=none;fillColor=none;align=left;verticalAlign=middle;spacingLeft=4;spacingRight=4;overflow=hidden;points=[[0,0.5],[1,0.5]];portConstraint=eastwest;rotatable=0;whiteSpace=wrap;html=1;" vertex="1" parent="ZsHar_ET8EySAVlPUovQ-56">
          <mxGeometry y="30" width="140" height="60" as="geometry" />
        </mxCell>
        <mxCell id="ZsHar_ET8EySAVlPUovQ-59" value="Status of Change" style="swimlane;fontStyle=0;childLayout=stackLayout;horizontal=1;startSize=30;horizontalStack=0;resizeParent=1;resizeParentMax=0;resizeLast=0;collapsible=1;marginBottom=0;whiteSpace=wrap;html=1;" vertex="1" parent="1">
          <mxGeometry x="910" y="470" width="140" height="70" as="geometry" />
        </mxCell>
        <mxCell id="ZsHar_ET8EySAVlPUovQ-60" value="Display status of password change" style="text;strokeColor=none;fillColor=none;align=left;verticalAlign=middle;spacingLeft=4;spacingRight=4;overflow=hidden;points=[[0,0.5],[1,0.5]];portConstraint=eastwest;rotatable=0;whiteSpace=wrap;html=1;" vertex="1" parent="ZsHar_ET8EySAVlPUovQ-59">
          <mxGeometry y="30" width="140" height="40" as="geometry" />
        </mxCell>
        <mxCell id="ZsHar_ET8EySAVlPUovQ-65" value="Status of Create User" style="swimlane;fontStyle=0;childLayout=stackLayout;horizontal=1;startSize=30;horizontalStack=0;resizeParent=1;resizeParentMax=0;resizeLast=0;collapsible=1;marginBottom=0;whiteSpace=wrap;html=1;" vertex="1" parent="1">
          <mxGeometry x="210" y="500" width="140" height="70" as="geometry" />
        </mxCell>
        <mxCell id="ZsHar_ET8EySAVlPUovQ-66" value="Display status of user creation" style="text;strokeColor=none;fillColor=none;align=left;verticalAlign=middle;spacingLeft=4;spacingRight=4;overflow=hidden;points=[[0,0.5],[1,0.5]];portConstraint=eastwest;rotatable=0;whiteSpace=wrap;html=1;" vertex="1" parent="ZsHar_ET8EySAVlPUovQ-65">
          <mxGeometry y="30" width="140" height="40" as="geometry" />
        </mxCell>
        <mxCell id="ZsHar_ET8EySAVlPUovQ-73" style="edgeStyle=orthogonalEdgeStyle;rounded=0;orthogonalLoop=1;jettySize=auto;html=1;entryX=0.5;entryY=0;entryDx=0;entryDy=0;" edge="1" parent="1" source="ZsHar_ET8EySAVlPUovQ-68" target="ZsHar_ET8EySAVlPUovQ-71">
          <mxGeometry relative="1" as="geometry" />
        </mxCell>
        <mxCell id="ZsHar_ET8EySAVlPUovQ-68" value="Choose Bug" style="swimlane;fontStyle=0;childLayout=stackLayout;horizontal=1;startSize=30;horizontalStack=0;resizeParent=1;resizeParentMax=0;resizeLast=0;collapsible=1;marginBottom=0;whiteSpace=wrap;html=1;" vertex="1" parent="1">
          <mxGeometry x="-120" y="350" width="140" height="70" as="geometry" />
        </mxCell>
        <mxCell id="ZsHar_ET8EySAVlPUovQ-69" value="Choose bug to exploit (bug, form_bug)" style="text;strokeColor=none;fillColor=none;align=left;verticalAlign=middle;spacingLeft=4;spacingRight=4;overflow=hidden;points=[[0,0.5],[1,0.5]];portConstraint=eastwest;rotatable=0;whiteSpace=wrap;html=1;" vertex="1" parent="ZsHar_ET8EySAVlPUovQ-68">
          <mxGeometry y="30" width="140" height="40" as="geometry" />
        </mxCell>
        <mxCell id="ZsHar_ET8EySAVlPUovQ-76" style="edgeStyle=orthogonalEdgeStyle;rounded=0;orthogonalLoop=1;jettySize=auto;html=1;entryX=0.5;entryY=0;entryDx=0;entryDy=0;" edge="1" parent="1" source="ZsHar_ET8EySAVlPUovQ-71" target="ZsHar_ET8EySAVlPUovQ-74">
          <mxGeometry relative="1" as="geometry" />
        </mxCell>
        <mxCell id="ZsHar_ET8EySAVlPUovQ-71" value="Bug Webpage" style="swimlane;fontStyle=0;childLayout=stackLayout;horizontal=1;startSize=30;horizontalStack=0;resizeParent=1;resizeParentMax=0;resizeLast=0;collapsible=1;marginBottom=0;whiteSpace=wrap;html=1;" vertex="1" parent="1">
          <mxGeometry x="-120" y="450" width="140" height="70" as="geometry" />
        </mxCell>
        <mxCell id="ZsHar_ET8EySAVlPUovQ-72" value="&lt;div&gt;necessary web page to perform hack on&lt;br&gt;&lt;/div&gt;" style="text;strokeColor=none;fillColor=none;align=left;verticalAlign=middle;spacingLeft=4;spacingRight=4;overflow=hidden;points=[[0,0.5],[1,0.5]];portConstraint=eastwest;rotatable=0;whiteSpace=wrap;html=1;" vertex="1" parent="ZsHar_ET8EySAVlPUovQ-71">
          <mxGeometry y="30" width="140" height="40" as="geometry" />
        </mxCell>
        <mxCell id="ZsHar_ET8EySAVlPUovQ-74" value="Bug Webpage Results" style="swimlane;fontStyle=0;childLayout=stackLayout;horizontal=1;startSize=30;horizontalStack=0;resizeParent=1;resizeParentMax=0;resizeLast=0;collapsible=1;marginBottom=0;whiteSpace=wrap;html=1;" vertex="1" parent="1">
          <mxGeometry x="-120" y="550" width="140" height="70" as="geometry" />
        </mxCell>
        <mxCell id="ZsHar_ET8EySAVlPUovQ-75" value="Results after interacting with webpage" style="text;strokeColor=none;fillColor=none;align=left;verticalAlign=middle;spacingLeft=4;spacingRight=4;overflow=hidden;points=[[0,0.5],[1,0.5]];portConstraint=eastwest;rotatable=0;whiteSpace=wrap;html=1;" vertex="1" parent="ZsHar_ET8EySAVlPUovQ-74">
          <mxGeometry y="30" width="140" height="40" as="geometry" />
        </mxCell>
      </root>
    </mxGraphModel>
  </diagram>
</mxfile>
